<svg height="526" width="720" xmlns="http://www.w3.org/2000/svg">
<rect height="526" fill="#555" width="720"></rect>
<text fill="#7f7" font-family="Courier New" font-size="12" xml:space="preserve">
<tspan x="10" y="26">8 megabytes installed</tspan>
<tspan x="10" y="42"></tspan>
<tspan x="10" y="58">node_modules</tspan>
<tspan x="10" y="74">└─┬ express-mailer@0.3.1 </tspan>
<tspan x="10" y="90">  └─┬ nodemailer@0.7.1 </tspan>
<tspan x="10" y="106">    ├─┬ aws-sdk@2.0.5 </tspan>
<tspan x="10" y="122">    │ ├── aws-sdk-apis@3.1.10 </tspan>
<tspan x="10" y="138">    │ ├─┬ xml2js@0.2.6 </tspan>
<tspan x="10" y="154">    │ │ └── sax@0.4.2 </tspan>
<tspan x="10" y="170">    │ └── xmlbuilder@0.4.2 </tspan>
<tspan x="10" y="186">    ├── directmail@0.1.8 </tspan>
<tspan x="10" y="202">    ├── he@0.3.6 </tspan>
<tspan x="10" y="218">    ├─┬ mailcomposer@0.2.12 </tspan>
<tspan x="10" y="234">    │ ├─┬ dkim-signer@0.1.2 </tspan>
<tspan x="10" y="250">    │ │ └── punycode@1.2.4 </tspan>
<tspan x="10" y="266">    │ ├─┬ follow-redirects@0.0.3 </tspan>
<tspan x="10" y="282">    │ │ └── underscore@1.8.3 </tspan>
<tspan x="10" y="298">    │ ├── mime@1.2.11 </tspan>
<tspan x="10" y="314">    │ └─┬ mimelib@0.2.19 </tspan>
<tspan x="10" y="330">    │   ├── addressparser@0.3.2 </tspan>
<tspan x="10" y="346">    │   └─┬ encoding@0.1.12 </tspan>
<tspan x="10" y="362">    │     └── iconv-lite@0.4.15 </tspan>
<tspan x="10" y="378">    ├── public-address@0.1.2 </tspan>
<tspan x="10" y="394">    ├─┬ readable-stream@1.1.14 </tspan>
<tspan x="10" y="410">    │ ├── core-util-is@1.0.2 </tspan>
<tspan x="10" y="426">    │ ├── inherits@2.0.3 </tspan>
<tspan x="10" y="442">    │ ├── isarray@0.0.1 </tspan>
<tspan x="10" y="458">    │ └── string_decoder@0.10.31 </tspan>
<tspan x="10" y="474">    └─┬ simplesmtp@0.3.35 </tspan>
<tspan x="10" y="490">      ├── rai@0.1.12 </tspan>
<tspan x="10" y="506">      └── xoauth2@0.1.8</tspan>
</text>
</svg>
